<svg xmlns="http://www.w3.org/2000/svg" width="40.118" height="34.414" viewBox="0 0 40.118 34.414"><defs><style>.a{fill:#e3e3e3;}.b{fill:#e5eef9;}.c{fill:#c41230;}</style></defs><g transform="translate(0 13.281)"><path class="a" d="M10.26,220.135H4.894A4.9,4.9,0,0,1,0,215.241v-4.449A4.9,4.9,0,0,1,4.894,205.9H10.26a1.254,1.254,0,0,1,0,2.508H4.894a2.389,2.389,0,0,0-2.386,2.386v4.449a2.389,2.389,0,0,0,2.386,2.386H10.26a1.254,1.254,0,1,1,0,2.508Z" transform="translate(0 -205.897)"/></g><path class="a" d="M378.6,205.938l6.537-10.572a.485.485,0,0,0-.413-.741H381.5a.566.566,0,0,0-.382.148l-6.687,6.1Z" transform="translate(-345.093 -182.228)"/><ellipse class="b" cx="14.157" cy="13.55" rx="14.157" ry="13.55" transform="translate(6.094 5.393)"/><path class="a" d="M238.267,105.234a14.923,14.923,0,0,0-1.716.1,13.492,13.492,0,0,1,0,26.9,14.917,14.917,0,0,0,1.716.1c7.819,0,14.157-6.067,14.157-13.55S246.086,105.234,238.267,105.234Z" transform="translate(-218.016 -99.841)"/><path class="a" d="M174.281,435.291h-11.9a1.713,1.713,0,1,1,0-3.427h11.9a1.713,1.713,0,1,1,0,3.427Z" transform="translate(-148.082 -400.877)"/><path class="a" d="M232.773,41.4h-4.261V38.53a2.13,2.13,0,1,1,4.261,0Z" transform="translate(-210.607 -36.4)"/><path class="a" d="M242.243,36.4a2.12,2.12,0,0,0-1.144.334,2.128,2.128,0,0,1,.986,1.8V41.4h2.288V38.53A2.13,2.13,0,0,0,242.243,36.4Z" transform="translate(-222.208 -36.4)"/><path class="a" d="M168.823,87.4H153.015a.388.388,0,0,1-.388-.388v-.96a2.67,2.67,0,0,1,2.67-2.67h11.244a2.67,2.67,0,0,1,2.67,2.67v.96A.388.388,0,0,1,168.823,87.4Z" transform="translate(-140.668 -79.704)"/><path class="a" d="M303.289,83.386H301a2.67,2.67,0,0,1,2.67,2.67v.96a.388.388,0,0,1-.388.388h2.288a.388.388,0,0,0,.388-.388v-.96A2.67,2.67,0,0,0,303.289,83.386Z" transform="translate(-277.416 -79.704)"/><path class="c" d="M14.737,2.473,2.991,2.357A11.621,11.621,0,0,1,0,0H17.225a20.755,20.755,0,0,1-2.488,2.473Z" transform="translate(11.33 26.626)"/><path class="a" d="M296.688,431.865h-3.2a1.713,1.713,0,0,1,0,3.427h3.2a1.713,1.713,0,0,0,0-3.427Z" transform="translate(-270.489 -400.878)"/></svg>