<svg xmlns="http://www.w3.org/2000/svg" width="38.683" height="30.794" viewBox="0 0 38.683 30.794"><defs><style>.a{fill:#e59770;}.b{fill:#db7e56;}.c{fill:#f9e8d4;}.d{fill:#e8d0ba;}.e{fill:#fec007;}.f{fill:#efad0a;}</style></defs><path class="a" d="M24.627,67.507C23.619,61.03,20.91,57,18.3,54.546a8.6,8.6,0,0,0-11.775,0C3.912,57,1.2,61.029.193,67.506c0,0-1.9,9.081,6.221,13.829a11.87,11.87,0,0,0,11.991,0C26.527,76.588,24.627,67.507,24.627,67.507Z" transform="translate(0 -52.213)"/><path class="b" d="M157.023,81.332a11.866,11.866,0,0,1-7.076,1.575,11.866,11.866,0,0,0,4.99-1.582c8.122-4.748,6.223-13.828,6.223-13.828-1.009-6.477-3.718-10.505-6.329-12.961a8.565,8.565,0,0,0-4.817-2.267,8.582,8.582,0,0,1,6.9,2.274c2.611,2.456,5.32,6.484,6.328,12.961C163.246,67.5,165.145,76.584,157.023,81.332Z" transform="translate(-138.618 -52.209)"/><path class="c" d="M208.107,68.11c-1.009-6.477-3.718-10.5-6.329-12.961a8.6,8.6,0,0,0-11.775,0c-2.612,2.456-5.321,6.483-6.33,12.96,0,0-1.9,9.081,6.221,13.829a11.87,11.87,0,0,0,11.991,0C210.007,77.191,208.107,68.11,208.107,68.11Z" transform="translate(-169.617 -52.77)"/><path class="d" d="M340.5,81.935a11.866,11.866,0,0,1-7.076,1.575,11.867,11.867,0,0,0,4.99-1.582c8.122-4.748,6.223-13.828,6.223-13.828-1.009-6.478-3.718-10.505-6.329-12.961a8.565,8.565,0,0,0-4.817-2.267,8.582,8.582,0,0,1,6.9,2.274c2.611,2.456,5.32,6.484,6.328,12.961C346.724,68.107,348.623,77.187,340.5,81.935Z" transform="translate(-308.234 -52.766)"/><circle class="e" cx="6.311" cy="6.311" r="6.311" transform="translate(19.963 13.692)"/><path class="f" d="M302.947,245a6.311,6.311,0,0,1-10.49,4.728,6.311,6.311,0,0,0,6.469-10.61A6.314,6.314,0,0,1,302.947,245Z" transform="translate(-270.361 -224.997)"/></svg>