<svg xmlns="http://www.w3.org/2000/svg" width="33.245" height="38.783" viewBox="0 0 33.245 38.783"><defs><style>.a{fill:#5a5a7a;}.b{fill:#d9c3d1;}.c{fill:#c79fb8;}.d{fill:#faf6ef;}.e{fill:#e0d8c9;}</style></defs><path class="a" d="M53.088,470.105a1.721,1.721,0,0,1-1.58-1.834v-1.6h3.16v1.6A1.721,1.721,0,0,1,53.088,470.105Zm0,0" transform="translate(-48.146 -431.322)"/><path class="a" d="M314.772,470.105h-.008a1.755,1.755,0,0,1-1.588-1.862v-1.572h3.16v1.572A1.736,1.736,0,0,1,314.772,470.105Zm0,0" transform="translate(-292.738 -431.322)"/><path class="b" d="M24,36.13H2.017A2.2,2.2,0,0,1,0,33.789V2.341A2.2,2.2,0,0,1,2.017,0H24a2.2,2.2,0,0,1,2.017,2.341V33.789A2.2,2.2,0,0,1,24,36.13Zm0,0"/><path class="c" d="M400.562,36.13a2.051,2.051,0,0,1-1.882-2.185V2.185a1.9,1.9,0,1,1,3.765,0v31.76A2.051,2.051,0,0,1,400.562,36.13Zm0,0" transform="translate(-372.662)"/><path class="c" d="M57.03,66.723H36.391a.366.366,0,0,1-.336-.39V36.445a.366.366,0,0,1,.336-.39H57.03a.366.366,0,0,1,.336.39V66.332A.367.367,0,0,1,57.03,66.723Zm0,0" transform="translate(-33.702 -33.324)"/><path class="c" d="M449.9,158.069h-.235a.592.592,0,0,1,0-1.171h.235a2.383,2.383,0,0,0,2.185-2.536v-6.945a2.383,2.383,0,0,0-2.185-2.536h-.235a.592.592,0,0,1,0-1.171h.235a3.483,3.483,0,0,1,3.193,3.707v6.945A3.483,3.483,0,0,1,449.9,158.069Zm0,0" transform="translate(-419.848 -132.825)"/><path class="d" d="M96.085,379.982H87.467a2.767,2.767,0,0,1-2.567-2.19l-.618-2.3a.384.384,0,0,1,.321-.507H98.949a.384.384,0,0,1,.321.507l-.619,2.3A2.767,2.767,0,0,1,96.085,379.982Zm0,0" transform="translate(-78.767 -346.583)"/><path class="d" d="M166.962,182.138H156.844v-5.462h9.446a.732.732,0,0,1,.672.78Zm0,0" transform="translate(-146.608 -163.293)"/><path class="e" d="M273.392,177.456v4.682h-2.017v-4.682a.732.732,0,0,0-.672-.78h2.017A.733.733,0,0,1,273.392,177.456Zm0,0" transform="translate(-253.037 -163.293)"/><path class="d" d="M93.381,131.676H86.793v-8.818a.732.732,0,0,1,.672-.78h5.244a.732.732,0,0,1,.672.78Zm0,0" transform="translate(-81.129 -112.831)"/><path class="e" d="M149.256,122.855v8.818h-2.017v-8.818a.733.733,0,0,0-.673-.781h2.017A.733.733,0,0,1,149.256,122.855Zm0,0" transform="translate(-137.001 -112.827)"/><path class="b" d="M36.055,238.488H57.366v2.731H36.055Zm0,0" transform="translate(-33.702 -220.423)"/><path class="b" d="M414.961,2.185v31.76a2.051,2.051,0,0,1-1.883,2.185,1.686,1.686,0,0,1-1.008-.341,2.281,2.281,0,0,0,.874-1.844V2.185A2.37,2.37,0,0,0,412.393.64a1.918,1.918,0,0,0-.323-.3A1.686,1.686,0,0,1,413.079,0a1.759,1.759,0,0,1,1.331.64A2.37,2.37,0,0,1,414.961,2.185Zm0,0" transform="translate(-385.179 0)"/><path class="e" d="M239.663,375.491l-.619,2.3a2.767,2.767,0,0,1-2.567,2.19h-2.017a2.767,2.767,0,0,0,2.567-2.19l.618-2.3a.384.384,0,0,0-.321-.507h2.017A.384.384,0,0,1,239.663,375.491Zm0,0" transform="translate(-219.16 -346.58)"/></svg>