<svg xmlns="http://www.w3.org/2000/svg" width="25.29" height="40.782" viewBox="0 0 25.29 40.782"><defs><style>.a{fill:#5a5a7a;}.b{fill:#86b0cc;}</style></defs><path class="a" d="M53.318,470.538a1.95,1.95,0,0,1-1.81-2.065v-1.8h3.62v1.8A1.95,1.95,0,0,1,53.318,470.538Zm0,0" transform="translate(-49.598 -429.756)"/><path class="a" d="M315,470.538H315a1.987,1.987,0,0,1-1.819-2.1v-1.77h3.62v1.77A1.965,1.965,0,0,1,315,470.538Zm0,0" transform="translate(-294.25 -429.756)"/><path class="b" d="M96.4,190.667v22.166a1.168,1.168,0,0,0,1.188,1.145h1.357c.007-.006,2.375.013,2.377,0h15.444c.014.031,2.373-.082,2.377,0H120.5a1.168,1.168,0,0,0,1.188-1.145V190.667Zm8.826,4.908H102.68a1.146,1.146,0,1,1,0-2.291h2.546a1.146,1.146,0,1,1,0,2.291Z" transform="translate(-96.4 -176.107)"/><path class="b" d="M121.69,12.269V1.145A1.168,1.168,0,0,0,120.5,0H97.588A1.168,1.168,0,0,0,96.4,1.145V12.269ZM102.68,7.361h2.546a1.146,1.146,0,1,1,0,2.291H102.68a1.146,1.146,0,1,1,0-2.291Z" transform="translate(-96.4)"/></svg>