<svg xmlns="http://www.w3.org/2000/svg" width="30.563" height="15.757" viewBox="0 0 30.563 15.757"><defs><style>.a{opacity:0.77;}.b{fill:#c93b53;}</style></defs><g class="a" transform="translate(0 -30.6)"><g transform="translate(0 30.6)"><path class="b" d="M27.506,30.6a3.05,3.05,0,0,0-2.2,5.172l-5.584,4.452a2.957,2.957,0,0,0-.37-.038,3.043,3.043,0,0,0-1.15.228L13.871,35.54a3.02,3.02,0,0,0,.391-1.466A3.056,3.056,0,1,0,8.9,36.056L3.6,40.3a3.067,3.067,0,0,0-.546-.055,3.093,3.093,0,1,0,2.306,1.074l5.3-4.243a2.906,2.906,0,0,0,1.692-.173l4.335,4.875a3.019,3.019,0,0,0-.387,1.466,3.056,3.056,0,1,0,5.253-2.116l5.584-4.452a2.953,2.953,0,0,0,.37.038,3.056,3.056,0,1,0,0-6.113ZM3.056,44.319A1.019,1.019,0,1,1,4.075,43.3,1.019,1.019,0,0,1,3.056,44.319Zm8.15-9.227a1.019,1.019,0,1,1,1.019-1.019A1.019,1.019,0,0,1,11.206,35.092Zm8.15,9.169a1.019,1.019,0,1,1,1.019-1.019A1.019,1.019,0,0,1,19.356,44.261Zm8.15-9.586a1.019,1.019,0,1,1,1.019-1.019A1.019,1.019,0,0,1,27.506,34.675Z" transform="translate(0 -30.6)"/></g></g></svg>