<svg xmlns="http://www.w3.org/2000/svg" width="28.4" height="28.4" viewBox="0 0 28.4 28.4"><defs><style>.a{opacity:0.77;}.b{fill:#c93b53;stroke:#c93b53;stroke-width:0.4px;}</style></defs><g class="a" transform="translate(0.2 0.2)"><g transform="translate(4.21 6.069)"><path class="b" d="M80.5,111.279a1.034,1.034,0,0,0-1.463,0,7.07,7.07,0,0,0-2.022,5.731,1.035,1.035,0,0,0,1.028.932c.035,0,.069,0,.1-.005a1.035,1.035,0,0,0,.927-1.132,5.009,5.009,0,0,1,1.426-4.062A1.034,1.034,0,0,0,80.5,111.279Z" transform="translate(-76.978 -110.975)"/></g><path class="b" d="M11.828,0A11.828,11.828,0,1,0,23.655,11.828,11.841,11.841,0,0,0,11.828,0Zm0,21.586a9.759,9.759,0,1,1,9.759-9.759A9.77,9.77,0,0,1,11.828,21.586Z"/><g transform="translate(18.414 18.414)"><path class="b" d="M345.992,344.53l-7.517-7.517a1.034,1.034,0,1,0-1.463,1.463l7.517,7.517a1.034,1.034,0,0,0,1.463-1.463Z" transform="translate(-336.708 -336.71)"/></g></g></svg>