<svg xmlns="http://www.w3.org/2000/svg" width="28.33" height="25.37" viewBox="0 0 28.33 25.37"><defs><style>.a{fill:#c41230;stroke:#c93b53;stroke-width:0.3px;}</style></defs><path class="a" d="M16.931,25a.98.98,0,0,1-.976-.979V17.334H11.882v6.687a.98.98,0,0,1-.976.979H4.226a.981.981,0,0,1-.978-.979V14.886H.967a.954.954,0,0,1-.9-.6A.981.981,0,0,1,.3,13.207L13.608.273a.974.974,0,0,1,1.369.016l12.74,12.934a.975.975,0,0,1-.685,1.663H24.263v9.135a.981.981,0,0,1-.978.979Z" transform="translate(0.164 0.22)"/></svg>