<svg xmlns="http://www.w3.org/2000/svg" width="20.208" height="32.414" viewBox="0 0 20.208 32.414"><defs><style>.a{fill:#fff;}</style></defs><g transform="translate(-96.4)"><path class="a" d="M96.4,190.667v18.376a.95.95,0,0,0,.95.95h1.085v.067a.95.95,0,1,0,1.9,0v-.067h12.341v.067a.95.95,0,0,0,1.9,0v-.067h1.085a.95.95,0,0,0,.95-.95V190.667Zm7.052,4.069h-2.034a.95.95,0,0,1,0-1.9h2.034a.95.95,0,0,1,0,1.9Z" transform="translate(0 -178.596)"/><path class="a" d="M116.608,10.171V.95a.95.95,0,0,0-.95-.95H97.35a.95.95,0,0,0-.95.95v9.222ZM101.418,6.1h2.034a.95.95,0,0,1,0,1.9h-2.034a.95.95,0,1,1,0-1.9Z" transform="translate(0)"/></g></svg>