<svg xmlns="http://www.w3.org/2000/svg" width="27.593" height="28" viewBox="0 0 27.593 28"><defs><style>.a{fill:#fff;}</style></defs><path class="a" d="M262.809,398H240.783A2.785,2.785,0,0,1,238,395.22V375.757a2.786,2.786,0,0,1,2.784-2.781h2.9v-1.625A1.353,1.353,0,0,1,245.036,370h.214a1.353,1.353,0,0,1,1.353,1.351v1.625h10.353v-1.625A1.353,1.353,0,0,1,258.307,370h.215a1.353,1.353,0,0,1,1.353,1.351v1.625h2.934a2.786,2.786,0,0,1,2.784,2.781V395.22A2.785,2.785,0,0,1,262.809,398Zm-17.021-17.769a1,1,0,0,0-1,1v9.846a1,1,0,0,0,1,1H257.8a1,1,0,0,0,1-1v-9.846a1,1,0,0,0-1-1Z" transform="translate(-238 -370)"/></svg>