<svg xmlns="http://www.w3.org/2000/svg" width="26.636" height="33.594" viewBox="0 0 26.636 33.594"><defs><style>.a{fill:#fff;}</style></defs><g transform="translate(-53.023)"><g transform="translate(53.023 6.627)"><path class="a" d="M79.643,122.081l-1.5-18.9A2.362,2.362,0,0,0,75.8,101H72.835V105.4a.984.984,0,1,1-1.968,0V101H61.816V105.4a.984.984,0,1,1-1.968,0V101H56.885a2.362,2.362,0,0,0-2.345,2.169l-1.5,18.909a5.47,5.47,0,0,0,5.454,5.889h15.7a5.47,5.47,0,0,0,5.453-5.891Zm-8.869-9.627-5.089,5.089a.983.983,0,0,1-1.392,0l-2.385-2.385a.984.984,0,0,1,1.391-1.391l1.69,1.689,4.393-4.393a.984.984,0,1,1,1.391,1.392Z" transform="translate(-53.023 -101.005)"/></g><g transform="translate(59.848)"><path class="a" d="M163.532,0a6.5,6.5,0,0,0-6.493,6.494v.133h1.968V6.494a4.526,4.526,0,1,1,9.052,0v.133h1.968V6.494A6.5,6.5,0,0,0,163.532,0Z" transform="translate(-157.039)"/></g></g></svg>