<svg xmlns="http://www.w3.org/2000/svg" width="34.256" height="29.385" viewBox="0 0 34.256 29.385"><defs><style>.a{fill:#fff;}</style></defs><g transform="translate(-1103.372 -199.308)"><g transform="translate(1103.372 210.648)"><path class="a" d="M6.973,218.055H3.326C1.492,218.055,0,216.18,0,213.875v-3.8c0-2.3,1.492-4.179,3.326-4.179H6.973a1.1,1.1,0,0,1,0,2.141H3.326A1.868,1.868,0,0,0,1.7,210.076v3.8a1.868,1.868,0,0,0,1.622,2.038H6.973a1.1,1.1,0,0,1,0,2.141Z" transform="translate(0 -205.897)"/></g><path class="a" d="M377.991,204.286l5.582-9.027a.414.414,0,0,0-.353-.632h-2.753a.483.483,0,0,0-.326.126l-5.71,5.21Z" transform="translate(753.992 15.268)"/><path class="a" d="M-1240.911-4504.859a12.288,12.288,0,0,1-8.548-3.389,11.252,11.252,0,0,1-3.541-8.182,11.251,11.251,0,0,1,3.541-8.181,12.288,12.288,0,0,1,8.548-3.389,12.288,12.288,0,0,1,8.548,3.389,11.25,11.25,0,0,1,3.541,8.181,11.252,11.252,0,0,1-3.541,8.182A12.288,12.288,0,0,1-1240.911-4504.859Zm-4.928-19.9a9.593,9.593,0,0,0-5.23,8.427,9.179,9.179,0,0,0,.213,1.968h19.891a9.11,9.11,0,0,0,.213-1.968,9.593,9.593,0,0,0-5.23-8.427Z" transform="translate(2361.576 4731.913)"/><path class="a" d="M238.016,105.234a12.743,12.743,0,0,0-1.465.085,11.521,11.521,0,0,1,0,22.971,12.739,12.739,0,0,0,1.465.085,11.581,11.581,0,1,0,0-23.141Z" transform="translate(882.648 98.679)"/><path class="a" d="M172.292,434.79H162.134a1.463,1.463,0,0,1,0-2.926h10.158a1.463,1.463,0,0,1,0,2.926Z" transform="translate(953.451 -206.097)"/><path class="a" d="M232.15,40.671h-3.638V38.219a1.819,1.819,0,1,1,3.638,0Z" transform="translate(890.149 162.908)"/><path class="a" d="M242.076,36.4a1.81,1.81,0,0,0-.977.285,1.817,1.817,0,0,1,.842,1.534v2.452h1.954V38.219A1.819,1.819,0,0,0,242.076,36.4Z" transform="translate(878.404 162.908)"/><path class="a" d="M166.457,86.816h-13.5a.331.331,0,0,1-.331-.331v-.819a2.28,2.28,0,0,1,2.28-2.28h9.6a2.28,2.28,0,0,1,2.28,2.28v.819A.331.331,0,0,1,166.457,86.816Z" transform="translate(960.957 119.065)"/><path class="a" d="M302.955,83.386H301a2.28,2.28,0,0,1,2.28,2.28v.819a.331.331,0,0,1-.331.331H304.9a.331.331,0,0,0,.331-.331v-.819A2.28,2.28,0,0,0,302.955,83.386Z" transform="translate(822.51 119.065)"/><path class="a" d="M126.724,248.758H106.833a9.17,9.17,0,0,0-.213,1.968,9.583,9.583,0,0,0,5.23,8.427h9.858a9.583,9.583,0,0,0,5.23-8.427A9.167,9.167,0,0,0,126.724,248.758Z" transform="translate(1003.886 -35.242)"/><path class="a" d="M296.22,431.865h-2.735a1.463,1.463,0,0,1,0,2.926h2.735a1.463,1.463,0,0,0,0-2.926Z" transform="translate(829.523 -206.098)"/><path class="a" d="M352.993,248.758h-.963a11.2,11.2,0,0,1-2.917,9.7,9.48,9.48,0,0,0,4.093-7.728A9.171,9.171,0,0,0,352.993,248.758Z" transform="translate(777.617 -35.242)"/><path class="a" d="M352.919,258.526h-.963a10.788,10.788,0,0,0-3.019-9.6,9.4,9.4,0,0,1,4.195,7.629A9.173,9.173,0,0,1,352.919,258.526Z" transform="translate(777.691 -41.096)"/></g></svg>