<svg xmlns="http://www.w3.org/2000/svg" width="22.039" height="26.416" viewBox="0 0 22.039 26.416"><defs><style>.a{fill:#fff;}</style></defs><path class="a" d="M93.394,12.725a6.156,6.156,0,0,0,4.5-1.864,6.156,6.156,0,0,0,1.864-4.5,6.157,6.157,0,0,0-1.864-4.5,6.361,6.361,0,0,0-9,0,6.156,6.156,0,0,0-1.864,4.5,6.156,6.156,0,0,0,1.864,4.5A6.158,6.158,0,0,0,93.394,12.725Zm0,0" transform="translate(-82.541)"/><path class="a" d="M21.985,254.869a15.715,15.715,0,0,0-.214-1.669,13.15,13.15,0,0,0-.411-1.678,8.288,8.288,0,0,0-.69-1.565,5.906,5.906,0,0,0-1.04-1.356,4.587,4.587,0,0,0-1.494-.939,5.165,5.165,0,0,0-1.908-.345,1.936,1.936,0,0,0-1.034.439c-.31.2-.673.436-1.077.695a6.173,6.173,0,0,1-1.394.614,5.413,5.413,0,0,1-3.41,0,6.158,6.158,0,0,1-1.393-.614c-.4-.256-.764-.49-1.078-.695a1.934,1.934,0,0,0-1.034-.439,5.158,5.158,0,0,0-1.908.346,4.583,4.583,0,0,0-1.495.939,5.906,5.906,0,0,0-1.04,1.356,8.3,8.3,0,0,0-.69,1.565,13.182,13.182,0,0,0-.41,1.678,15.659,15.659,0,0,0-.214,1.67c-.035.505-.053,1.03-.053,1.56a4.386,4.386,0,0,0,1.3,3.318,4.69,4.69,0,0,0,3.357,1.225H17.379a4.689,4.689,0,0,0,3.357-1.225,4.384,4.384,0,0,0,1.3-3.319C22.038,255.9,22.021,255.372,21.985,254.869Zm0,0" transform="translate(0 -234.557)"/></svg>